<svg width="26" height="26" viewBox="0 0 26 26" fill="none" xmlns="http://www.w3.org/2000/svg">
<path d="M8.24863 4.68998L15.6243 12.1821C15.7861 12.3456 15.8768 12.5663 15.8769 12.7962C15.8769 13.0262 15.7862 13.2469 15.6245 13.4104L8.25231 20.9044C8.09068 21.069 8.00012 21.2904 8.00015 21.521C8.00018 21.7517 8.09079 21.9731 8.25247 22.1376C8.33146 22.2186 8.42585 22.2829 8.5301 22.3269C8.63435 22.3708 8.74634 22.3934 8.85947 22.3934C8.9726 22.3934 9.08458 22.3708 9.18882 22.3268C9.29306 22.2828 9.38744 22.2184 9.4664 22.1374L16.8386 14.645C17.323 14.1515 17.5943 13.4875 17.5943 12.796C17.5942 12.1045 17.3226 11.4406 16.8381 10.9472L9.464 3.4567C9.38499 3.37546 9.29049 3.31089 9.1861 3.2668C9.0817 3.22271 8.96953 3.2 8.8562 3.20002C8.74288 3.20003 8.63071 3.22277 8.52632 3.26689C8.42194 3.311 8.32746 3.3756 8.24847 3.45686C8.08684 3.62138 7.99628 3.84281 7.99631 4.07345C7.99634 4.30409 8.08695 4.52549 8.24863 4.68998Z" fill="white"/>
</svg>
