<svg width="24" height="24" viewBox="0 0 24 24" fill="none" xmlns="http://www.w3.org/2000/svg">
<path d="M22 10.8699L19.26 9.27995C19.5 9.06995 19.73 8.79995 19.9 8.49995C20.73 7.06995 20.24 5.22995 18.8 4.39995C17.94 3.89995 16.93 3.89995 16.08 4.25995L16.09 4.24995L15.21 4.63995L15.1 3.67995L15.09 3.68995C15 2.77995 14.47 1.89995 13.61 1.39995C12.9182 1.00469 12.0984 0.898508 11.3287 1.1045C10.5591 1.31049 9.90186 1.81199 9.5 2.49995C9.33 2.79995 9.22 3.12995 9.16 3.44995L6.41 1.86995C5.45 1.31995 4.23 1.63995 3.68 2.59995L2.18 5.19995C2.11411 5.31332 2.0714 5.43865 2.05435 5.56866C2.03729 5.69867 2.04624 5.83078 2.08066 5.95731C2.11508 6.08383 2.1743 6.20226 2.25487 6.30572C2.33544 6.40917 2.43576 6.49559 2.55 6.55995L4.28 7.55995L8.5 9.99995H2V20C2 20.5304 2.21071 21.0391 2.58579 21.4142C2.96086 21.7892 3.46957 22 4 22H20C21.11 22 22 21.11 22 20V14.8699L22.73 13.5999C23.28 12.6399 22.96 11.4199 22 10.8699ZM16.44 6.49995C16.71 5.99995 17.33 5.85995 17.8 6.12995C18.28 6.40995 18.45 6.99995 18.17 7.49995C17.89 7.99995 17.28 8.13995 16.8 7.86995C16.33 7.58995 16.16 6.99995 16.44 6.49995ZM14.07 8.59995L21 12.5999L20 14.3299L13.07 10.3299L14.07 8.59995ZM11 20H4V11.9999H11V20ZM11.34 9.32995L4.41 5.32995L5.41 3.59995L12.34 7.59995L11.34 9.32995ZM11.61 4.86995C11.13 4.58995 10.97 3.99995 11.24 3.49995C11.5 2.99995 12.13 2.85995 12.61 3.12995C13.09 3.40995 13.25 3.99995 12.97 4.49995C12.7 4.99995 12.09 5.13995 11.61 4.86995ZM13 20V12.5999L20 16.6399V20H13Z" fill="#D1D3D4"/>
</svg>
