<svg width="25" height="25" viewBox="0 0 25 25" fill="none" xmlns="http://www.w3.org/2000/svg">
<g clip-path="url(#clip0_771_138)">
<path fill-rule="evenodd" clip-rule="evenodd" d="M12.5 0.494629C12.1482 0.494784 11.8036 0.594903 11.5064 0.783325C11.2092 0.971747 10.9717 1.24072 10.8215 1.55891L7.98574 7.28213L7.96431 7.3232L7.95538 7.32677L7.92324 7.33034L1.68038 8.25534C1.32623 8.28972 0.989415 8.42512 0.710001 8.64541C0.430587 8.86571 0.220339 9.16164 0.104272 9.49799C-0.0117957 9.83434 -0.0287964 10.197 0.0552923 10.5427C0.139381 10.8884 0.321019 11.2027 0.578596 11.4482L5.14824 15.8571L5.15895 15.8661C5.16541 15.8721 5.17027 15.8797 5.17307 15.8881C5.17588 15.8965 5.17655 15.9055 5.17503 15.9143V15.9214L4.08574 22.2928C4.02595 22.6383 4.0642 22.9954 4.19616 23.3202C4.32812 23.645 4.5485 23.9263 4.83228 24.1321C5.11606 24.338 5.45187 24.4602 5.80159 24.4848C6.1513 24.5094 6.50092 24.4355 6.81074 24.2714L12.4357 21.2982C12.4771 21.2822 12.5229 21.2822 12.5643 21.2982L18.1893 24.2696C18.499 24.4348 18.8488 24.5096 19.1989 24.4856C19.549 24.4616 19.8854 24.3397 20.1696 24.1339C20.4538 23.928 20.6745 23.6464 20.8065 23.3212C20.9385 22.9961 20.9765 22.6403 20.9161 22.2946L19.8268 15.9196V15.9143C19.8244 15.9059 19.8244 15.8976 19.8268 15.8893L19.8411 15.8661L19.8518 15.8571L24.4215 11.4464C24.6785 11.2009 24.8596 10.8867 24.9434 10.5412C25.0271 10.1958 25.01 9.83353 24.894 9.49752C24.778 9.16152 24.568 8.86586 24.2889 8.64568C24.0098 8.42549 23.6734 8.29001 23.3197 8.25534L17.0768 7.33034L17.0357 7.3232L17.0304 7.31606L17.0143 7.28213L14.1786 1.55891C14.0284 1.24072 13.7908 0.971747 13.4937 0.783325C13.1965 0.594903 12.8519 0.494784 12.5 0.494629Z" fill="white"/>
</g>
<defs>
<clipPath id="clip0_771_138">
<rect width="25" height="25" fill="white"/>
</clipPath>
</defs>
</svg>
