<svg width="25" height="25" viewBox="0 0 25 25" fill="none" xmlns="http://www.w3.org/2000/svg">
<path d="M5.00629 12.5V19.9937C5.00629 20.5614 5.23164 21.1058 5.63283 21.5074C6.03402 21.909 6.57823 22.1348 7.14587 22.1354H17.8542C18.422 22.1351 18.9665 21.9094 19.3679 21.5078C19.7693 21.1061 19.9948 20.5616 19.9948 19.9937V12.5M7.2115 7.14686C6.26879 5.9479 6.07608 2.86456 9.28858 2.86456C12.9282 2.86456 12.4469 7.14686 12.5 7.14686M12.5 7.14686C12.5532 7.14686 12.125 2.86456 15.7115 2.86456C18.924 2.86456 18.7094 5.9479 17.7677 7.14686M12.5 7.14686V22.1354M20.5292 7.14686H4.47087C3.58337 7.14686 2.86462 7.8656 2.86462 8.7531V10.8937C2.86462 11.7812 3.58337 12.5 4.47087 12.5H20.5292C21.4167 12.5 22.1355 11.7812 22.1355 10.8937V8.7531C22.1355 7.8656 21.4167 7.14686 20.5292 7.14686Z" stroke="#314D9A" stroke-width="1.5" stroke-linecap="round" stroke-linejoin="round"/>
</svg>
