<svg width="25" height="25" viewBox="0 0 25 25" fill="none" xmlns="http://www.w3.org/2000/svg">
<path d="M17.6416 13.6458C18.5458 13.3302 19.6697 13.2875 22.0197 13.2812H23.6708C23.6635 13.3948 23.6812 13.1698 23.6708 13.2812C23.6351 13.6784 23.4615 14.0506 23.1801 14.3333L14.3176 23.2396C14.1821 23.3762 14.0208 23.4847 13.8431 23.5587C13.6653 23.6327 13.4747 23.6708 13.2822 23.6708C13.1697 23.6812 13.3947 23.6635 13.2822 23.6708V22.0208C13.2874 19.6708 13.3301 18.5468 13.6468 17.6427C13.9698 16.7195 14.4967 15.881 15.1883 15.1894C15.8799 14.4978 16.7184 13.9709 17.6416 13.6479" fill="white"/>
<path fill-rule="evenodd" clip-rule="evenodd" d="M12.0334 17.5833C11.7459 18.6916 11.7209 20.0458 11.7188 22.1041V23.6708C5.899 23.2698 1.30212 18.4219 1.30212 12.5C1.30212 6.31561 6.31567 1.30206 12.5 1.30206C18.4219 1.30206 23.2709 5.89894 23.6709 11.7187H22.1042C19.7532 11.7208 18.3198 11.7541 17.125 12.1719C15.238 12.8321 13.6631 14.1691 12.7052 15.9239L12.6459 15.9312C11.5938 16.1225 10.5133 16.0913 9.474 15.8396C9.27302 15.7891 9.06023 15.8206 8.88247 15.9271C8.7047 16.0336 8.5765 16.2063 8.52608 16.4073C8.47566 16.6083 8.50715 16.821 8.61362 16.9988C8.72008 17.1766 8.89281 17.3048 9.09379 17.3552C10.0167 17.5864 11.0125 17.6677 12.0334 17.5844M15.5188 11.6916C16.074 11.5427 16.3438 10.7469 16.1198 9.91352C15.8969 9.08019 15.2657 8.52498 14.7094 8.67394C14.1542 8.8229 13.8844 9.61873 14.1073 10.4521C14.3302 11.2854 14.9625 11.8406 15.5188 11.6916ZM9.48129 13.3094C10.0375 13.1604 10.3063 12.3646 10.0834 11.5312C9.86046 10.6979 9.22921 10.1427 8.67296 10.2916C8.11671 10.4406 7.84796 11.2364 8.07087 12.0698C8.29379 12.9031 8.92504 13.4583 9.48129 13.3094Z" fill="white"/>
</svg>
