<svg width="25" height="25" viewBox="0 0 25 25" fill="none" xmlns="http://www.w3.org/2000/svg">
<path fill-rule="evenodd" clip-rule="evenodd" d="M10.8804 2.25895C11.3463 1.90527 11.9151 1.71381 12.5 1.71381C13.085 1.71381 13.6538 1.90527 14.1197 2.25895L15.2982 3.1536C18.7605 5.78382 21.7265 9.00981 24.0572 12.6804L24.4357 13.275C24.6072 13.545 24.7029 13.8561 24.713 14.1757C24.7231 14.4953 24.6472 14.8118 24.4932 15.0921C24.3392 15.3724 24.1128 15.6062 23.8375 15.769C23.5623 15.9319 23.2484 16.0178 22.9286 16.0179H21.6947C21.7661 17.6607 21.6768 19.3054 21.4268 20.9322C21.3064 21.7152 20.9096 22.4292 20.3081 22.9448C19.7067 23.4604 18.9405 23.7435 18.1482 23.7429H14.7322V17.8572C14.7322 17.2652 14.497 16.6974 14.0784 16.2788C13.6598 15.8602 13.092 15.625 12.5 15.625C11.908 15.625 11.3403 15.8602 10.9217 16.2788C10.5031 16.6974 10.2679 17.2652 10.2679 17.8572V23.7429H6.85181C6.06031 23.7417 5.29527 23.4578 4.6945 22.9425C4.09373 22.4272 3.69673 21.7143 3.57503 20.9322C3.32503 19.3054 3.23574 17.659 3.30717 16.0179H2.07146C1.75166 16.0178 1.43774 15.9319 1.16251 15.769C0.887284 15.6062 0.660837 15.3724 0.506832 15.0921C0.352826 14.8118 0.276914 14.4953 0.287026 14.1757C0.297138 13.8561 0.392902 13.545 0.564315 13.275L0.941101 12.6786C3.2725 9.00852 6.23909 5.78313 9.70181 3.1536L10.8804 2.25895Z" fill="white"/>
</svg>
